/* XPM */
static char * logo_xpm[] = {
"53 43 453 2",
"  	c None",
". 	c #FEFFEC",
"+ 	c #C0C4B5",
"@ 	c #88AA77",
"# 	c #58855E",
"$ 	c #19761B",
"% 	c #C0E5C4",
"& 	c #B8C9BF",
"* 	c #8B808E",
"= 	c #BEC9BB",
"- 	c #E3ECE9",
"; 	c #10571D",
"> 	c #02840A",
", 	c #91C795",
"' 	c #B6A4B4",
") 	c #13200F",
"! 	c #939E98",
"~ 	c #246A2B",
"{ 	c #007E00",
"] 	c #A0D59D",
"^ 	c #D0DCD0",
"/ 	c #B1C2B2",
"( 	c #C6DBC8",
"_ 	c #DEF5E1",
": 	c #FAFFEC",
"< 	c #4E4F4A",
"[ 	c #0B0D08",
"} 	c #A4ABA4",
"| 	c #A9B3AB",
"1 	c #ACB8AE",
"2 	c #A0ADA3",
"3 	c #A8A8B0",
"4 	c #ACAEAB",
"5 	c #A8B09B",
"6 	c #A5B18D",
"7 	c #C1D0A5",
"8 	c #E0EFC8",
"9 	c #E7F6D7",
"0 	c #F0FEE5",
"a 	c #97A397",
"b 	c #152616",
"c 	c #142515",
"d 	c #677E64",
"e 	c #A2B6AA",
"f 	c #E1E0E5",
"g 	c #8C8C8A",
"h 	c #000200",
"i 	c #AEB3AD",
"j 	c #DAE1DA",
"k 	c #000901",
"l 	c #3F4941",
"m 	c #ADAFA4",
"n 	c #9EA294",
"o 	c #8B907C",
"p 	c #889172",
"q 	c #738150",
"r 	c #768743",
"s 	c #AAC06B",
"t 	c #C3DB7B",
"u 	c #C8D993",
"v 	c #D1DDB5",
"w 	c #ECF5DA",
"x 	c #E3EAE2",
"y 	c #636D64",
"z 	c #002B00",
"A 	c #002500",
"B 	c #33772A",
"C 	c #7DAC75",
"D 	c #C8CCCD",
"E 	c #A2A2A2",
"F 	c #000000",
"G 	c #8D8F8C",
"H 	c #D4D6D3",
"I 	c #000100",
"J 	c #6C6E6B",
"K 	c #E8F0D8",
"L 	c #B2BE8E",
"M 	c #AEBE7F",
"N 	c #C7E082",
"O 	c #C9DAA3",
"P 	c #CCD9AB",
"Q 	c #DAE9B2",
"R 	c #E3EDCA",
"S 	c #AFC8AA",
"T 	c #149016",
"U 	c #004600",
"V 	c #12390D",
"W 	c #057104",
"X 	c #4EA846",
"Y 	c #CEE0D0",
"Z 	c #9F9FA1",
"` 	c #000002",
" .	c #929091",
"..	c #C9C7C8",
"+.	c #040203",
"@.	c #6B696A",
"#.	c #CACDC6",
"$.	c #B7CB8C",
"%.	c #D0E1B4",
"&.	c #CCDDB3",
"*.	c #CDE1A2",
"=.	c #CDE199",
"-.	c #E2EDC5",
";.	c #D4E9D6",
">.	c #35AB3D",
",.	c #006500",
"'.	c #003200",
").	c #004D00",
"!.	c #1D7C06",
"~.	c #7ABD7A",
"{.	c #DDFEE9",
"].	c #A8A8AA",
"^.	c #979598",
"/.	c #D2CECF",
"(.	c #030000",
"_.	c #716D6E",
":.	c #A7B59B",
"<.	c #B8CC91",
"[.	c #D3E7B6",
"}.	c #CADDB0",
"|.	c #C0DA81",
"1.	c #BCD577",
"2.	c #E1EEC3",
"3.	c #5EAE67",
"4.	c #0E9A13",
"5.	c #003300",
"6.	c #006700",
"7.	c #3BA342",
"8.	c #D7E1C8",
"9.	c #A3A3A5",
"0.	c #020204",
"a.	c #8E8C8D",
"b.	c #D3D1D2",
"c.	c #030102",
"d.	c #686667",
"e.	c #D7E0CB",
"f.	c #95AD57",
"g.	c #BFD78D",
"h.	c #BCD2AC",
"i.	c #BEDC86",
"j.	c #B1D64B",
"k.	c #B1CD69",
"l.	c #EBFBD7",
"m.	c #81BB81",
"n.	c #15A720",
"o.	c #007A03",
"p.	c #082D02",
"q.	c #004500",
"r.	c #21802C",
"s.	c #B9D6BA",
"t.	c #A6A6A6",
"u.	c #010101",
"v.	c #8E8E8E",
"w.	c #D1D1CF",
"x.	c #6F6F6D",
"y.	c #839355",
"z.	c #A0B965",
"A.	c #BBD993",
"B.	c #C1E488",
"C.	c #ADD84A",
"D.	c #95BD36",
"E.	c #C3E090",
"F.	c #81CD82",
"G.	c #1AA820",
"H.	c #008500",
"I.	c #013900",
"J.	c #004000",
"K.	c #116F19",
"L.	c #A1D49B",
"M.	c #A3A3A3",
"N.	c #919390",
"O.	c #CED0CD",
"P.	c #000300",
"Q.	c #666B67",
"R.	c #7E847A",
"S.	c #788F47",
"T.	c #ABD05E",
"U.	c #AED56A",
"V.	c #9BC549",
"W.	c #90BB2E",
"X.	c #A0C554",
"Y.	c #98D091",
"Z.	c #11A624",
"`.	c #008600",
" +	c #003C00",
".+	c #002900",
"++	c #126209",
"@+	c #B5CFB4",
"#+	c #A7A9A8",
"$+	c #D4D2D3",
"%+	c #6B716D",
"&+	c #687F49",
"*+	c #8DB449",
"=+	c #87B73F",
"-+	c #76A62C",
";+	c #69971B",
">+	c #94C04D",
",+	c #E8FCE0",
"'+	c #87D08B",
")+	c #14AB10",
"!+	c #057310",
"~+	c #004300",
"{+	c #0A3200",
"]+	c #147727",
"^+	c #CADED5",
"/+	c #020202",
"(+	c #8F8F8F",
"_+	c #D0D0D0",
":+	c #020001",
"<+	c #F2F4E7",
"[+	c #444F2D",
"}+	c #6A863B",
"|+	c #82AC40",
"1+	c #6F9F29",
"2+	c #5D8916",
"3+	c #4F7214",
"4+	c #819C57",
"5+	c #68C56A",
"6+	c #06B20E",
"7+	c #056200",
"8+	c #002F00",
"9+	c #003D02",
"0+	c #338F42",
"a+	c #A4A2A3",
"b+	c #909090",
"c+	c #CBCBCB",
"d+	c #030504",
"e+	c #6A6C6B",
"f+	c #C8CFBF",
"g+	c #4D6029",
"h+	c #688A36",
"i+	c #729F3A",
"j+	c #62911F",
"k+	c #4E7411",
"l+	c #293D08",
"m+	c #B0B8AB",
"n+	c #E2F9E7",
"o+	c #57BD4D",
"p+	c #05B200",
"q+	c #075404",
"r+	c #002D06",
"s+	c #024300",
"t+	c #81AA82",
"u+	c #A9A7A8",
"v+	c #010000",
"w+	c #929292",
"x+	c #CACCCB",
"y+	c #000201",
"z+	c #696D6C",
"A+	c #768282",
"B+	c #506E32",
"C+	c #6B9936",
"D+	c #62962A",
"E+	c #497916",
"F+	c #315014",
"G+	c #5E695B",
"H+	c #D8DBD4",
"I+	c #2ABD27",
"J+	c #03A400",
"K+	c #013100",
"L+	c #081F03",
"M+	c #19621B",
"N+	c #CFDBD1",
"O+	c #A7A5A6",
"P+	c #949293",
"Q+	c #CECECE",
"R+	c #666C6A",
"S+	c #C6CCCA",
"T+	c #3F5E32",
"U+	c #5D873F",
"V+	c #5C8F32",
"W+	c #558D22",
"X+	c #45780F",
"Y+	c #57753F",
"Z+	c #BCC5C4",
"`+	c #C0D8CA",
" @	c #07C406",
".@	c #002B0D",
"+@	c #002104",
"@@	c #5A9663",
"#@	c #918F90",
"$@	c #676B6A",
"%@	c #DEEDDA",
"&@	c #62745C",
"*@	c #4B7720",
"=@	c #528026",
"-@	c #48791D",
";@	c #4B7E19",
">@	c #4D781F",
",@	c #A4BD95",
"'@	c #6FB265",
")@	c #00CC00",
"!@	c #004D06",
"~@	c #001005",
"{@	c #0D4810",
"]@	c #C4D0CC",
"^@	c #A1A3A2",
"/@	c #928E8F",
"(@	c #6B6D6C",
"_@	c #D7E6D3",
":@	c #5A724E",
"<@	c #355222",
"[@	c #335B1D",
"}@	c #3A6314",
"|@	c #527C1A",
"1@	c #6B8E3E",
"2@	c #BCD0B5",
"3@	c #DBE7D3",
"4@	c #34C03D",
"5@	c #00A606",
"6@	c #061500",
"7@	c #041B00",
"8@	c #778882",
"9@	c #A1A5A4",
"0@	c #959192",
"a@	c #6B6B6B",
"b@	c #E1E0E6",
"c@	c #C8C7CF",
"d@	c #737977",
"e@	c #13250D",
"f@	c #133000",
"g@	c #183F00",
"h@	c #345526",
"i@	c #729167",
"j@	c #B5CEA4",
"k@	c #F0FFE8",
"l@	c #A6C5A5",
"m@	c #00CB00",
"n@	c #0A5D01",
"o@	c #000A00",
"p@	c #163D22",
"q@	c #9BAE9A",
"r@	c #000500",
"s@	c #988D9D",
"t@	c #CACFD5",
"u@	c #060000",
"v@	c #696F6B",
"w@	c #B9BABE",
"x@	c #8D8E90",
"y@	c #707173",
"z@	c #898A8C",
"A@	c #C0C1C3",
"B@	c #D5D7D6",
"C@	c #EAECEB",
"D@	c #ECF7EF",
"E@	c #48BF49",
"F@	c #0CAD00",
"G@	c #001801",
"H@	c #011603",
"I@	c #B2BFB8",
"J@	c #A9B7A8",
"K@	c #010100",
"L@	c #948E9A",
"M@	c #CBCED3",
"N@	c #B1D0AE",
"O@	c #08C900",
"P@	c #015508",
"Q@	c #000700",
"R@	c #647F78",
"S@	c #B3BEB8",
"T@	c #040000",
"U@	c #949198",
"V@	c #CFCFD1",
"W@	c #696B6A",
"X@	c #3FBF44",
"Y@	c #06A805",
"Z@	c #001A00",
"`@	c #2C3D37",
" #	c #97A3A1",
".#	c #958F93",
"+#	c #D1CCD0",
"@#	c #676D6D",
"##	c #A6CEB6",
"$#	c #01C700",
"%#	c #004C00",
"&#	c #101109",
"*#	c #5A6A6A",
"=#	c #000600",
"-#	c #988D91",
";#	c #D1CDCE",
">#	c #666F6E",
",#	c #33CB2A",
"'#	c #048608",
")#	c #050E00",
"!#	c #20302F",
"~#	c #998D91",
"{#	c #CFCFCF",
"]#	c #686E6C",
"^#	c #8CCB85",
"/#	c #0BB109",
"(#	c #002800",
"_#	c #010D09",
":#	c #000400",
"<#	c #968D90",
"[#	c #CDD1D2",
"}#	c #6F6B6A",
"|#	c #EAECE7",
"1#	c #1ED113",
"2#	c #004D01",
"3#	c #010A05",
"4#	c #050402",
"5#	c #929093",
"6#	c #CCD1D4",
"7#	c #726867",
"8#	c #77CA60",
"9#	c #007901",
"0#	c #000D01",
"a#	c #0D0000",
"b#	c #889492",
"c#	c #D1D1D1",
"d#	c #010005",
"e#	c #72696C",
"f#	c #B1E6A0",
"g#	c #008C06",
"h#	c #051008",
"i#	c #080000",
"j#	c #89968C",
"k#	c #D0D1D5",
"l#	c #030004",
"m#	c #6E6A69",
"n#	c #EBF9E0",
"o#	c #28B42F",
"p#	c #030F01",
"q#	c #8D988A",
"r#	c #C6C9D0",
"s#	c #040001",
"t#	c #706F6D",
"u#	c #64C868",
"v#	c #001B00",
"w#	c #030200",
"x#	c #8D928C",
"y#	c #D0D3D8",
"z#	c #6B6B69",
"A#	c #C4EDC5",
"B#	c #002C00",
"C#	c #060100",
"D#	c #8D8A91",
"E#	c #D0D2D1",
"F#	c #7F7D7E",
"G#	c #0A430C",
"H#	c #8E8B96",
"I#	c #808080",
"J#	c #4C6D4E",
"K#	c #040002",
"L#	c #959595",
"M#	c #CCC9D2",
"N#	c #868A89",
"O#	c #CFD6CF",
"P#	c #A19EA7",
"Q#	c #D5DBCD",
"R#	c #F0E9FB",
"S#	c #A79CA0",
"T#	c #D0D9D4",
"                                                                                                          ",
"                                                                                                          ",
"                                                                                                          ",
"                                                          .                                               ",
"                                                        + @                                               ",
"                                                        # $ %                                             ",
"                                                & * = - ; > ,                                             ",
"                                                  ' ) ! ~ { ]                                             ",
"        ^ / ( _     :                               < [ } | 1 2 3 4 5 6 7 8 9 0                           ",
"          a b c d e f                               g h i j k l m n o p q r s t u v w                     ",
"            x y z A B C D                           E F G H I J           K L M N O P Q R                 ",
"                S T U V W X Y                       Z `  ...+.@.              #.$.%.&.*.=.-.              ",
"                  ;.>.,.'.).!.~.{.                  ].` ^./.(._.                :.<.[.}.|.1.2.            ",
"                      3.4.).5.6.7.8.                9.0.a.b.c.d.                e.f.g.h.i.j.k.l.          ",
"                        m.n.o.p.q.r.s.              t.u.v.w.F x.                  y.z.A.B.C.D.E.          ",
"                          F.G.H.I.J.K.L.            M.F N.O.P.Q.                  R.S.T.U.V.W.X.          ",
"                            Y.Z.`. +.+++@+          #+I v.$+(._.                  %+&+*+=+-+;+>+          ",
"                            ,+'+)+!+~+{+]+^+        E /+(+_+:+@.                <+[+}+|+1+2+3+4+          ",
"                                5+6+7+8+9+0+        a+/+b+c+d+e+                f+g+h+i+j+k+l+m+          ",
"                                n+o+p+q+r+s+t+      u+v+w+x+y+z+                A+B+C+D+E+F+G+            ",
"                                  H+I+J+K+L+M+N+    O+:+P+Q+I R+              S+T+U+V+W+X+Y+Z+            ",
"                                    `+ @{ .@+@@@    E c.#@_+I $@            %@&@*@=@-@;@>@,@              ",
"                                      '@)@!@~@{@]@  ^@:+/@/.u.(@          _@:@<@[@}@|@1@2@                ",
"                                      3@4@5@6@7@8@  9@v+0@/.v+a@    b@c@d@e@f@g@h@i@j@k@                  ",
"                                        l@m@n@o@p@  q@r@s@t@u@v@  w@x@y@z@A@B@C@                          ",
"                                        D@E@F@G@H@I@J@K@L@M@(.z+                                          ",
"                                          N@O@P@Q@R@S@T@U@V@I W@                                          ",
"                                            X@Y@Z@`@ #h .#+#I @#                                          ",
"                                            ##$#%#&#*#=#-#;#(.>#                                          ",
"                                              ,#'#)#!#Q@~#{#(.]#                                          ",
"                                              ^#/#(#_#:#<#[#I }#                                          ",
"                                              |#1#2#3#4#5#6#:#7#                                          ",
"                                                8#9#0#a#b#c#d#e#                                          ",
"                                                f#g#h#i#j#k#l#m#                                          ",
"                                                n#o#p#(.q#r#s#t#                                          ",
"                                                  u#v#w#x#y#I z#                                          ",
"                                                  A#B#C#D#E#r@F#                                          ",
"                                                    G#u@H#c#r@I#                                          ",
"                                                    J#K#L#M#v+N#                                          ",
"                                                    O#P#Q#R#S#T#                                          ",
"                                                                                                          ",
"                                                                                                          ",
"                                                                                                          "};
