<?xml version="1.0" encoding="UTF-8" standalone="no"?>
<!-- Created with Inkscape (http://www.inkscape.org/) -->

<svg
   xmlns:dc="http://purl.org/dc/elements/1.1/"
   xmlns:cc="http://creativecommons.org/ns#"
   xmlns:rdf="http://www.w3.org/1999/02/22-rdf-syntax-ns#"
   xmlns:svg="http://www.w3.org/2000/svg"
   xmlns="http://www.w3.org/2000/svg"
   xmlns:sodipodi="http://sodipodi.sourceforge.net/DTD/sodipodi-0.dtd"
   xmlns:inkscape="http://www.inkscape.org/namespaces/inkscape"
   width="155"
   height="120"
   id="svg2927"
   sodipodi:version="0.32"
   inkscape:version="0.92.2 5c3e80d, 2017-08-06"
   version="1.0"
   sodipodi:docname="openalea_web.svg"
   inkscape:output_extension="org.inkscape.output.svg.inkscape"
   inkscape:export-filename="/user/sdufour/home/Desktop/openalea_web.png"
   inkscape:export-xdpi="90"
   inkscape:export-ydpi="90">
  <defs
     id="defs2929" />
  <sodipodi:namedview
     id="base"
     pagecolor="#ffffff"
     bordercolor="#666666"
     borderopacity="1.0"
     inkscape:pageopacity="0.0"
     inkscape:pageshadow="2"
     inkscape:zoom="1.979899"
     inkscape:cx="172.17131"
     inkscape:cy="109.52647"
     inkscape:document-units="px"
     inkscape:current-layer="layer1"
     height="120px"
     width="155px"
     inkscape:window-width="1280"
     inkscape:window-height="856"
     inkscape:window-x="67"
     inkscape:window-y="0"
     showgrid="false"
     inkscape:window-maximized="0" />
  <metadata
     id="metadata2932">
    <rdf:RDF>
      <cc:Work
         rdf:about="">
        <dc:format>image/svg+xml</dc:format>
        <dc:type
           rdf:resource="http://purl.org/dc/dcmitype/StillImage" />
      </cc:Work>
    </rdf:RDF>
  </metadata>
  <g
     inkscape:label="Calque 1"
     inkscape:groupmode="layer"
     id="layer1"
     transform="translate(-185.86928,-6.1859962)">
    <g
       id="g2560"
       transform="matrix(0.2834217,-0.1203205,7.5894201e-2,0.2578017,509.42525,-317.08419)"
       style="fill:#ffcc00;fill-opacity:1">
      <path
         id="path2562"
         style="fill:#ffcc00;fill-opacity:1;fill-rule:evenodd;stroke:#000000;stroke-width:1px;stroke-linecap:butt;stroke-linejoin:miter;stroke-opacity:1"
         d="M -947.03012,1016.1588 C -947.03012,1016.1588 -995.62512,1044.715 -1000.0782,1042.4885 C -1004.5312,1040.262 -1008.9843,1032.1908 -1002.8613,1028.5727 C -996.73838,1024.9546 -1002.6748,1019.2367 -1004.2529,1017.9967 C -1008.1493,1014.9352 -1020.9519,1016.8834 -1024.2917,1024.9546 C -1027.6315,1033.0258 -1024.2917,1038.0355 -1019.0037,1036.9222 C -1013.7157,1035.8089 -1013.7157,1035.8089 -1013.7157,1035.8089 C -1013.7157,1035.8089 -1007.0361,1043.8801 -1009.5409,1048.0548 C -1012.0458,1052.2295 -1030.1363,1064.7538 -1034.3111,1064.1972 M -946.92758,1015.956 C -945.35319,1019.1048 -944.59798,1018.901 -934.62876,1032.6741 C -930.7868,1037.982 -932.17598,1036.3182 -926.4483,1030.8686 C -922.29642,1026.9183 -932.89439,1025.1035 -922.24637,1013.2358 C -915.12243,1005.2957 -895.55381,1024.9266 -902.20323,1035.5781 C -906.51941,1042.4921 -912.32963,1033.2871 -920.74946,1038.9154 C -926.51301,1042.7681 -928.75186,1043.1899 -925.92704,1046.8542 C -918.8712,1056.0069 -903.28713,1083.2098 -897.06367,1089.7322 C -899.62379,1098.8205 -907.02227,1112.2473 -915.2428,1123.7561 C -923.3295,1135.0775 -948.06504,1155.5519 -948.06504,1155.5519 C -948.06504,1155.5519 -976.35396,1108.662 -982.55427,1114.4748 C -988.75458,1120.2876 -992.62978,1124.5503 -984.87939,1131.1381 C -977.129,1137.726 -995.72994,1152.4517 -1003.0928,1145.0888 C -1006.0743,1142.1073 -1010.0028,1137.8486 -1013.5174,1133.8598 C -1018.6822,1127.9982 -1019.404,1119.5575 -1014.3309,1115.6373 C -1005.8054,1109.0495 -1003.4803,1119.125 -998.05505,1117.5749 C -993.80671,1116.3611 -984.49187,1110.9871 -989.1421,1105.1743 C -993.79234,1099.3615 -1033.3193,1064.4848 -1033.3193,1064.4848 L -1034.4182,1064.2251"
         sodipodi:nodetypes="cssssscsccsssssscscssssssscc" />
    </g>
    <path
       style="fill:#d40000;fill-opacity:1;fill-rule:evenodd;stroke:#000000;stroke-width:0.28670228px;stroke-linecap:butt;stroke-linejoin:miter;stroke-opacity:1"
       d="M 281.91155,109.40107 C 282.22193,109.88269 286.50131,102.08552 286.34894,99.849991 C 286.19658,97.614512 287.75407,96.033228 289.18302,95.733295 C 290.61201,95.433371 290.31477,97.859709 291.44654,99.986133 C 292.57829,102.11253 296.77991,96.341807 298.37754,94.896878 C 299.97515,93.451919 299.50179,90.125967 297.75179,89.335397 C 296.00185,88.544906 293.86619,91.598313 292.82788,92.652509 C 291.78954,93.706706 288.92911,92.007467 292.07358,88.372351 C 295.21805,84.737285 297.02622,81.793118 297.02622,81.793118 L 297.35737,81.727856 C 297.35737,81.727856 311.20713,85.963218 312.96627,86.902244 C 314.72537,87.841232 312.49319,90.347436 311.38128,91.171546 C 309.96127,92.223942 308.53761,89.906221 306.62129,92.63034 C 305.48097,94.251368 306.32611,96.340541 308.23479,97.230273 C 309.53367,97.835699 310.97028,98.460919 312.0416,98.870813 C 314.68719,99.883095 318.8415,93.848698 316.14487,93.08283 C 313.44829,92.317029 314.22307,90.751839 315.53925,88.507256 C 316.85536,86.262693 328.43173,94.947243 328.43173,94.947243 C 328.43173,94.947243 324.80499,101.09485 317.90904,105.37103 C 311.01308,109.64721 300.7579,110.06725 299.57135,110.23381 C 298.38481,110.40036 290.26738,109.688 287.44717,109.7614 C 284.62694,109.83478 283.89533,110.70728 283.45601,110.89381 C 283.01668,111.08031 277.32841,121.13758 276.2025,123.18899 C 275.07661,125.2404 276.06097,127.74466 275.657,126.79223 C 275.2531,125.83986 275.15752,118.79991 276.10877,117.83413 C 277.06005,116.86834 281.91155,109.40107 281.91155,109.40107 z "
       id="path2566"
       sodipodi:nodetypes="csssssssscssssssscsssssssc" />
    <path
       style="fill:#88aa00;fill-opacity:1;fill-rule:evenodd;stroke:#000000;stroke-width:0.28670228px;stroke-linecap:butt;stroke-linejoin:miter;stroke-opacity:1"
       d="M 307.81825,45.861437 C 310.10485,48.086956 314.30376,50.413858 313.60643,52.308025 C 312.9091,54.202182 310.34336,55.291448 309.58254,53.559691 C 308.82175,51.827943 306.4553,51.462719 305.40136,53.850725 C 304.34742,56.238741 306.49447,60.121633 307.25339,60.141874 C 308.01234,60.162136 309.807,61.569142 311.12001,57.929626 C 312.43301,54.290149 314.79154,54.202143 315.38711,54.520059 C 315.98266,54.837927 317.47439,58.199981 318.15961,58.822338 C 318.84479,59.444656 319.04337,59.301271 322.91417,61.652484 C 324.4059,62.558632 323.88588,62.296796 325.09565,60.202755 C 325.97259,58.684814 322.83114,59.492081 324.94835,55.151393 C 326.36478,52.247242 333.40086,54.953651 332.32468,58.4997 C 331.62607,60.801434 329.28073,59.127451 327.32154,61.591565 C 325.98043,63.278244 325.37792,63.656407 326.45662,64.261151 C 329.15102,65.771761 337.82126,73.039022 337.86683,71.686052 L 335.79127,50.081513 C 335.79127,50.081513 334.95906,44.270601 333.87574,40.164429 C 332.79244,36.058267 330.93193,35.706566 330.25469,35.537468 C 329.57743,35.368399 327.60727,36.775562 326.74468,37.255868 C 325.88213,37.736203 314.42189,42.715536 313.52945,43.09442 C 312.63703,43.473275 307.81825,45.861437 307.81825,45.861437 z "
       id="path2568"
       sodipodi:nodetypes="csssssssssssssccssssc" />
    <path
       style="fill:#00aa88;fill-opacity:1;fill-rule:evenodd;stroke:#000000;stroke-width:0.28670228px;stroke-linecap:butt;stroke-linejoin:miter;stroke-opacity:1"
       d="M 297.05013,81.823602 C 295.82468,82.18241 290.99937,81.171306 288.27092,78.528163 C 285.66392,76.002623 283.79617,75.988301 284.6837,74.481518 C 285.5712,72.974695 286.61644,71.400917 287.9376,71.970056 C 289.13138,72.484371 290.38318,72.564412 291.15191,71.73558 C 291.89289,70.936725 292.13811,69.056812 290.92686,67.956709 C 289.71558,66.856548 289.14152,66.068267 288.15778,66.387838 C 286.53792,66.914089 285.8392,67.856417 286.17716,69.00446 C 286.51511,70.152455 285.49098,71.797979 284.25992,71.83631 C 283.02885,71.874642 280.58652,70.812783 280.24856,69.664798 C 279.91059,68.516813 280.27266,67.636651 280.27266,67.636651 C 279.7323,68.543539 279.47281,69.113359 279.07238,69.788905 C 276.75743,73.378543 275.60403,77.616748 275.37891,82.006 C 275.15383,86.395232 279.07571,99.144692 280.18867,102.35253 C 281.30158,105.56033 281.62512,108.94995 281.93547,109.43152 C 282.24587,109.91319 286.52521,102.11597 286.37288,99.880495 C 286.22051,97.644967 287.77801,96.063731 289.207,95.763798 C 290.63596,95.463855 290.33872,97.890193 291.47047,100.01661 C 292.60223,102.143 296.80386,96.372339 298.40148,94.927352 C 299.99909,93.482403 299.52571,90.156422 297.77573,89.365891 C 296.02577,88.575351 293.89013,91.628807 292.8518,92.682974 C 291.81345,93.73716 288.95304,92.037922 292.09751,88.402816 C 295.242,84.767769 297.05013,81.823602 297.05013,81.823602 z "
       id="path2570"
       sodipodi:nodetypes="csssssssssccsssssssssss" />
    <text
       xml:space="preserve"
       style="font-size:3.96016073px;line-height:0.01%;stroke-width:0.33001339"
       x="189.27823"
       y="57.426498"
       id="text29"
       transform="scale(0.99102465,1.0090566)"><tspan
         sodipodi:role="line"
         x="189.27823"
         y="57.426498"
         id="tspan27"
         style="stroke-width:0.33001339"><tspan
           x="189.27823"
           y="57.426498"
           style="font-size:23.76096344px;line-height:1.25;stroke-width:0.33001339"
           id="tspan25">OpenAlea</tspan></tspan></text>
    <path
       style="fill:#ff6600;fill-rule:evenodd;stroke:#000000;stroke-width:0.28670228px;stroke-linecap:butt;stroke-linejoin:miter;stroke-opacity:1"
       d="M 306.72134,28.623689 C 305.89594,32.437892 305.46648,36.840035 303.34894,36.652924 C 300.9837,36.443908 299.62451,34.864356 301.12129,33.057942 C 301.81755,32.217659 301.00897,30.130803 298.35487,30.108809 C 296.62962,30.094507 293.26018,33.697045 293.70235,34.85462 C 293.98706,35.599974 293.38627,37.6695 297.42976,37.123514 C 301.47324,36.577566 302.57048,38.736188 302.41459,39.396516 C 302.25873,40.056873 300.56287,42.824698 300.1242,43.702747 C 300.1242,43.702747 282.54038,39.880668 282.1814,38.628642 C 281.82241,37.376626 281.91428,34.758835 284.00758,35.248916 C 286.1009,35.738998 285.99261,34.511877 286.00074,33.705437 C 286.01386,32.403874 284.45702,30.407759 281.0614,30.275006 C 278.32389,30.167995 277.16322,32.74206 278.48935,33.536115 C 279.81552,34.330229 280.23726,34.458328 280.23726,34.458328 C 280.23726,34.458328 280.41266,37.327409 278.91097,37.623701 C 277.40931,37.919954 270.54694,37.025753 269.8438,36.13419 C 269.14064,35.242637 267.87097,30.406094 268.22921,28.468465 C 268.85496,25.083998 269.1237,21.565717 270.01548,21.556088 C 272.20002,21.532516 274.56908,21.673662 274.36087,23.075752 C 274.17268,24.342665 274.71921,25.486667 275.77054,25.767527 C 276.78385,26.038233 278.17494,25.95601 278.95039,24.403808 C 279.72584,22.851644 279.86801,21.727338 279.27166,21.026166 C 278.2897,19.871619 276.45106,19.896427 275.34789,20.648665 C 274.23595,21.4069 273.18207,20.991164 272.60813,20.039344 C 271.83766,18.761586 271.92917,16.528414 272.60216,15.362924 C 273.47578,13.849987 278.35777,14.593005 278.35777,14.593005 C 278.35777,14.593005 284.24115,15.657473 288.69151,17.290992 C 292.49524,18.687172 296.95572,21.030596 298.90537,22.467892 C 301.03309,24.036461 306.63531,28.492747 306.72134,28.623689 z "
       id="path2564"
       sodipodi:nodetypes="csssssssssssscssssssssssscssc" />
  </g>
</svg>
